<svg width="44.883" height="36.98" xmlns="http://www.w3.org/2000/svg">
 <defs>
  <linearGradient y2="1.416657" x2="0.012579" y1="0.015685" x1="0.913272" id="SVGID_1_">
   <stop stop-color="#31C2DD" offset="0"/>
   <stop stop-color="#0B9BD7" offset="1"/>
  </linearGradient>
  <linearGradient y2="3.054884" x2="-2.056656" y1="-4.521142" x1="5.524901" id="SVGID_3_">
   <stop stop-color="#31C2DD" offset="0"/>
   <stop stop-color="#0B9BD7" offset="1"/>
  </linearGradient>
 </defs>
 <g>
  <title>background</title>
  <rect fill="none" id="canvas_background" height="402" width="582" y="-1" x="-1"/>
 </g>
 <g>
  <title>Layer 1</title>
  <g id="svg_1">
   <path stroke-width="0" id="svg_2" fill="url(#SVGID_1_)" d="m34.132999,7.355c-0.547001,0 -1.092999,0.043 -1.634998,0.128c-1.873001,-4.491 -6.255001,-7.483 -11.258001,-7.483c-5.879,0 -10.868,4.262 -11.981999,9.858c-5.127,0.13 -9.258,4.34 -9.258,9.497c0,4.159 2.781,7.899 6.713,9.08c0.845,0.278 1.72,0.42 2.6,0.42l25.256001,0c0.966,0 1.923,-0.173 2.847,-0.513c4.468998,-1.431 7.467999,-5.536999 7.467999,-10.237c-0.000999,-5.926999 -4.822998,-10.75 -10.750999,-10.75zm2.029999,17.187999l-0.102997,0.036001c-0.488003,0.184 -0.990002,0.275999 -1.492001,0.275999l-25.256001,0c-0.454,0 -0.907001,-0.073 -1.398,-0.233999c-2.305,-0.691999 -3.914,-2.858 -3.914,-5.266001c0,-3.032 2.468,-5.5 5.5,-5.5c0.375,0 0.753,0.039001 1.124,0.115001l2.354,0.484l0.05,-2.402c0.089,-4.44 3.774,-8.052 8.212,-8.052c3.827,0 7.113001,2.605 7.99,6.336l0.514,2.183l2.110001,-0.759c0.747002,-0.269 1.514,-0.404 2.278,-0.404c3.722,0 6.75,3.028 6.75,6.750001c0.000999,2.960999 -1.896,5.549 -4.719002,6.436998z"/>
   <path stroke-width="0" id="svg_4" fill="url(#SVGID_3_)" d="m22.931,33.313l-0.667,0l0,-0.667c0,-0.553001 -0.447001,-1 -1,-1s-1,0.446999 -1,1l0,0.667l-0.666,0c-0.552999,0 -1,0.446999 -1,1s0.447001,1 1,1l0.666,0l0,0.667c0,0.553001 0.447001,1 1,1s1,-0.446999 1,-1l0,-0.667l0.667,0c0.552999,0 1,-0.446999 1,-1s-0.448,-1 -1,-1z"/>
  </g>
  <path d="m6.680042,31.522291c0.0625,0 0.188345,0.097815 0.625,0.125c0.502917,0.031311 1.120112,0.260984 1.8125,0.562502c0.74493,0.324398 1.524709,0.695412 2.125,1c0.525809,0.266796 0.962836,0.56937 1.5,0.8125c0.594462,0.269062 1.081876,0.271091 1.25,0.375c0.075188,0.046467 0.181382,0.176525 0.0625,0.25c-0.106332,0.065716 -0.551635,-0.019432 -0.875,-0.1875c-0.546185,-0.283878 -1.101677,-0.591846 -1.625,-1.25c-0.474814,-0.597145 -0.927952,-1.252584 -1,-1.500002c-0.055259,-0.18976 -0.106694,-0.330807 -0.0625,-0.375c0.044194,-0.044193 0.55535,0.068731 0.9375,0.5c0.448351,0.50598 0.686352,1.0445 0.75,1.375002c0.047276,0.245487 0.0625,0.375 0.0625,0.4375l0,0.0625" id="svg_6" fill-opacity="0" stroke-width="0" stroke="#000" fill="none"/>
 </g>
</svg>